<mxfile host="app.diagrams.net" agent="Mozilla/5.0 (Windows NT 10.0; Win64; x64) AppleWebKit/537.36 (KHTML, like Gecko) Chrome/128.0.0.0 Safari/537.36" version="24.7.7">
  <diagram name="Page-1" id="CYiZ-pUfIAGz_8GbXBvS">
    <mxGraphModel dx="1400" dy="1796" grid="1" gridSize="10" guides="1" tooltips="1" connect="1" arrows="1" fold="1" page="1" pageScale="1" pageWidth="850" pageHeight="1100" math="0" shadow="0">
      <root>
        <mxCell id="0" />
        <mxCell id="1" parent="0" />
        <mxCell id="HwU-P4itBQ1TjPHvPvn0-1" value="Student" style="shape=umlActor;verticalLabelPosition=bottom;verticalAlign=top;html=1;outlineConnect=0;" vertex="1" parent="1">
          <mxGeometry x="160" y="-750" width="30" height="60" as="geometry" />
        </mxCell>
        <mxCell id="HwU-P4itBQ1TjPHvPvn0-13" value="" style="group" vertex="1" connectable="0" parent="1">
          <mxGeometry x="353" y="-850" width="145" height="600" as="geometry" />
        </mxCell>
        <mxCell id="HwU-P4itBQ1TjPHvPvn0-2" value="Log In" style="ellipse;whiteSpace=wrap;html=1;" vertex="1" parent="HwU-P4itBQ1TjPHvPvn0-13">
          <mxGeometry width="145.00000000000003" height="44.44444444444444" as="geometry" />
        </mxCell>
        <mxCell id="HwU-P4itBQ1TjPHvPvn0-3" value="View Courses&lt;span style=&quot;color: rgba(0, 0, 0, 0); font-family: monospace; font-size: 0px; text-align: start; text-wrap: nowrap;&quot;&gt;%3CmxGraphModel%3E%3Croot%3E%3CmxCell%20id%3D%220%22%2F%3E%3CmxCell%20id%3D%221%22%20parent%3D%220%22%2F%3E%3CmxCell%20id%3D%222%22%20value%3D%22Log%20In%22%20style%3D%22ellipse%3BwhiteSpace%3Dwrap%3Bhtml%3D1%3B%22%20vertex%3D%221%22%20parent%3D%221%22%3E%3CmxGeometry%20x%3D%22310%22%20y%3D%22-810%22%20width%3D%22130%22%20height%3D%2240%22%20as%3D%22geometry%22%2F%3E%3C%2FmxCell%3E%3C%2Froot%3E%3C%2FmxGraphModel%3E&lt;/span&gt;" style="ellipse;whiteSpace=wrap;html=1;" vertex="1" parent="HwU-P4itBQ1TjPHvPvn0-13">
          <mxGeometry y="55.555555555555564" width="145.00000000000003" height="44.44444444444444" as="geometry" />
        </mxCell>
        <mxCell id="HwU-P4itBQ1TjPHvPvn0-4" value="Enroll Courses&lt;span style=&quot;color: rgba(0, 0, 0, 0); font-family: monospace; font-size: 0px; text-align: start; text-wrap: nowrap;&quot;&gt;%3CmxGraphModel%3E%3Croot%3E%3CmxCell%20id%3D%220%22%2F%3E%3CmxCell%20id%3D%221%22%20parent%3D%220%22%2F%3E%3CmxCell%20id%3D%222%22%20value%3D%22Log%20In%22%20style%3D%22ellipse%3BwhiteSpace%3Dwrap%3Bhtml%3D1%3B%22%20vertex%3D%221%22%20parent%3D%221%22%3E%3CmxGeometry%20x%3D%22310%22%20y%3D%22-810%22%20width%3D%22130%22%20height%3D%2240%22%20as%3D%22geometry%22%2F%3E%3C%2FmxCell%3E%3C%2Froot%3E%3C%2FmxGraphModel%3E&lt;/span&gt;" style="ellipse;whiteSpace=wrap;html=1;" vertex="1" parent="HwU-P4itBQ1TjPHvPvn0-13">
          <mxGeometry y="111.11111111111113" width="145.00000000000003" height="44.44444444444444" as="geometry" />
        </mxCell>
        <mxCell id="HwU-P4itBQ1TjPHvPvn0-5" value="Upload Certificate" style="ellipse;whiteSpace=wrap;html=1;" vertex="1" parent="HwU-P4itBQ1TjPHvPvn0-13">
          <mxGeometry y="166.6666666666667" width="145.00000000000003" height="44.44444444444444" as="geometry" />
        </mxCell>
        <mxCell id="HwU-P4itBQ1TjPHvPvn0-6" value="View Credits&lt;span style=&quot;color: rgba(0, 0, 0, 0); font-family: monospace; font-size: 0px; text-align: start; text-wrap: nowrap;&quot;&gt;%3CmxGraphModel%3E%3Croot%3E%3CmxCell%20id%3D%220%22%2F%3E%3CmxCell%20id%3D%221%22%20parent%3D%220%22%2F%3E%3CmxCell%20id%3D%222%22%20value%3D%22Enroll%20Courses%26lt%3Bspan%20style%3D%26quot%3Bcolor%3A%20rgba(0%2C%200%2C%200%2C%200)%3B%20font-family%3A%20monospace%3B%20font-size%3A%200px%3B%20text-align%3A%20start%3B%20text-wrap%3A%20nowrap%3B%26quot%3B%26gt%3B%253CmxGraphModel%253E%253Croot%253E%253CmxCell%2520id%253D%25220%2522%252F%253E%253CmxCell%2520id%253D%25221%2522%2520parent%253D%25220%2522%252F%253E%253CmxCell%2520id%253D%25222%2522%2520value%253D%2522Log%2520In%2522%2520style%253D%2522ellipse%253BwhiteSpace%253Dwrap%253Bhtml%253D1%253B%2522%2520vertex%253D%25221%2522%2520parent%253D%25221%2522%253E%253CmxGeometry%2520x%253D%2522310%2522%2520y%253D%2522-810%2522%2520width%253D%2522130%2522%2520height%253D%252240%2522%2520as%253D%2522geometry%2522%252F%253E%253C%252FmxCell%253E%253C%252Froot%253E%253C%252FmxGraphModel%253E%26lt%3B%2Fspan%26gt%3B%22%20style%3D%22ellipse%3BwhiteSpace%3Dwrap%3Bhtml%3D1%3B%22%20vertex%3D%221%22%20parent%3D%221%22%3E%3CmxGeometry%20x%3D%22310%22%20y%3D%22-710%22%20width%3D%22130%22%20height%3D%2240%22%20as%3D%22geometry%22%2F%3E%3C%2FmxCell%3E%3C%2Froot%3E%3C%2FmxGraphModel%3E&lt;/span&gt;" style="ellipse;whiteSpace=wrap;html=1;" vertex="1" parent="HwU-P4itBQ1TjPHvPvn0-13">
          <mxGeometry y="222.22222222222226" width="145.00000000000003" height="44.44444444444444" as="geometry" />
        </mxCell>
        <mxCell id="HwU-P4itBQ1TjPHvPvn0-7" value="Upload Courses" style="ellipse;whiteSpace=wrap;html=1;" vertex="1" parent="HwU-P4itBQ1TjPHvPvn0-13">
          <mxGeometry y="277.7777777777778" width="145.00000000000003" height="44.44444444444444" as="geometry" />
        </mxCell>
        <mxCell id="HwU-P4itBQ1TjPHvPvn0-8" value="View Student Records" style="ellipse;whiteSpace=wrap;html=1;" vertex="1" parent="HwU-P4itBQ1TjPHvPvn0-13">
          <mxGeometry y="333.3333333333334" width="145.00000000000003" height="44.44444444444444" as="geometry" />
        </mxCell>
        <mxCell id="HwU-P4itBQ1TjPHvPvn0-9" value="Verify Credits" style="ellipse;whiteSpace=wrap;html=1;" vertex="1" parent="HwU-P4itBQ1TjPHvPvn0-13">
          <mxGeometry y="388.88888888888897" width="145.00000000000003" height="44.44444444444444" as="geometry" />
        </mxCell>
        <mxCell id="HwU-P4itBQ1TjPHvPvn0-10" value="View College List" style="ellipse;whiteSpace=wrap;html=1;" vertex="1" parent="HwU-P4itBQ1TjPHvPvn0-13">
          <mxGeometry y="444.4444444444445" width="145.00000000000003" height="44.44444444444444" as="geometry" />
        </mxCell>
        <mxCell id="HwU-P4itBQ1TjPHvPvn0-11" value="View Courses List" style="ellipse;whiteSpace=wrap;html=1;" vertex="1" parent="HwU-P4itBQ1TjPHvPvn0-13">
          <mxGeometry y="500.00000000000006" width="145.00000000000003" height="44.44444444444444" as="geometry" />
        </mxCell>
        <mxCell id="HwU-P4itBQ1TjPHvPvn0-12" value="Report Issues" style="ellipse;whiteSpace=wrap;html=1;" vertex="1" parent="HwU-P4itBQ1TjPHvPvn0-13">
          <mxGeometry y="555.5555555555557" width="145.00000000000003" height="44.44444444444444" as="geometry" />
        </mxCell>
        <mxCell id="HwU-P4itBQ1TjPHvPvn0-14" value="College&amp;nbsp;&lt;div&gt;Instructor&lt;/div&gt;" style="shape=umlActor;verticalLabelPosition=bottom;verticalAlign=top;html=1;outlineConnect=0;" vertex="1" parent="1">
          <mxGeometry x="660" y="-650" width="30" height="60" as="geometry" />
        </mxCell>
        <mxCell id="HwU-P4itBQ1TjPHvPvn0-16" value="Administrator" style="shape=umlActor;verticalLabelPosition=bottom;verticalAlign=top;html=1;outlineConnect=0;" vertex="1" parent="1">
          <mxGeometry x="660" y="-460" width="30" height="60" as="geometry" />
        </mxCell>
        <mxCell id="HwU-P4itBQ1TjPHvPvn0-19" value="" style="endArrow=none;html=1;rounded=0;entryX=0;entryY=0.5;entryDx=0;entryDy=0;" edge="1" parent="1" target="HwU-P4itBQ1TjPHvPvn0-2">
          <mxGeometry width="50" height="50" relative="1" as="geometry">
            <mxPoint x="200" y="-720" as="sourcePoint" />
            <mxPoint x="330" y="-910" as="targetPoint" />
          </mxGeometry>
        </mxCell>
        <mxCell id="HwU-P4itBQ1TjPHvPvn0-20" value="" style="endArrow=none;html=1;rounded=0;entryX=0;entryY=0.5;entryDx=0;entryDy=0;" edge="1" parent="1" target="HwU-P4itBQ1TjPHvPvn0-3">
          <mxGeometry width="50" height="50" relative="1" as="geometry">
            <mxPoint x="200" y="-720" as="sourcePoint" />
            <mxPoint x="363" y="-818" as="targetPoint" />
          </mxGeometry>
        </mxCell>
        <mxCell id="HwU-P4itBQ1TjPHvPvn0-21" value="" style="endArrow=none;html=1;rounded=0;entryX=0;entryY=0.5;entryDx=0;entryDy=0;" edge="1" parent="1" target="HwU-P4itBQ1TjPHvPvn0-4">
          <mxGeometry width="50" height="50" relative="1" as="geometry">
            <mxPoint x="200" y="-720" as="sourcePoint" />
            <mxPoint x="350" y="-717" as="targetPoint" />
          </mxGeometry>
        </mxCell>
        <mxCell id="HwU-P4itBQ1TjPHvPvn0-22" value="" style="endArrow=none;html=1;rounded=0;entryX=0;entryY=0.5;entryDx=0;entryDy=0;" edge="1" parent="1" target="HwU-P4itBQ1TjPHvPvn0-5">
          <mxGeometry width="50" height="50" relative="1" as="geometry">
            <mxPoint x="200" y="-720" as="sourcePoint" />
            <mxPoint x="366" y="-707" as="targetPoint" />
          </mxGeometry>
        </mxCell>
        <mxCell id="HwU-P4itBQ1TjPHvPvn0-23" value="" style="endArrow=none;html=1;rounded=0;entryX=0;entryY=0.5;entryDx=0;entryDy=0;" edge="1" parent="1" target="HwU-P4itBQ1TjPHvPvn0-6">
          <mxGeometry width="50" height="50" relative="1" as="geometry">
            <mxPoint x="200" y="-720" as="sourcePoint" />
            <mxPoint x="363" y="-651" as="targetPoint" />
          </mxGeometry>
        </mxCell>
        <mxCell id="HwU-P4itBQ1TjPHvPvn0-24" value="" style="endArrow=none;html=1;rounded=0;exitX=1;exitY=0.5;exitDx=0;exitDy=0;" edge="1" parent="1" source="HwU-P4itBQ1TjPHvPvn0-2">
          <mxGeometry width="50" height="50" relative="1" as="geometry">
            <mxPoint x="510" y="-690" as="sourcePoint" />
            <mxPoint x="650" y="-620" as="targetPoint" />
          </mxGeometry>
        </mxCell>
        <mxCell id="HwU-P4itBQ1TjPHvPvn0-25" value="" style="endArrow=none;html=1;rounded=0;exitX=1;exitY=0.5;exitDx=0;exitDy=0;" edge="1" parent="1" source="HwU-P4itBQ1TjPHvPvn0-2">
          <mxGeometry width="50" height="50" relative="1" as="geometry">
            <mxPoint x="508" y="-818" as="sourcePoint" />
            <mxPoint x="650" y="-430" as="targetPoint" />
          </mxGeometry>
        </mxCell>
        <mxCell id="HwU-P4itBQ1TjPHvPvn0-26" value="" style="endArrow=none;html=1;rounded=0;exitX=1;exitY=0.5;exitDx=0;exitDy=0;" edge="1" parent="1" source="HwU-P4itBQ1TjPHvPvn0-7">
          <mxGeometry width="50" height="50" relative="1" as="geometry">
            <mxPoint x="508" y="-818" as="sourcePoint" />
            <mxPoint x="650" y="-620" as="targetPoint" />
          </mxGeometry>
        </mxCell>
        <mxCell id="HwU-P4itBQ1TjPHvPvn0-27" value="" style="endArrow=none;html=1;rounded=0;exitX=1;exitY=0.5;exitDx=0;exitDy=0;" edge="1" parent="1" source="HwU-P4itBQ1TjPHvPvn0-8">
          <mxGeometry width="50" height="50" relative="1" as="geometry">
            <mxPoint x="508" y="-540" as="sourcePoint" />
            <mxPoint x="650" y="-620" as="targetPoint" />
          </mxGeometry>
        </mxCell>
        <mxCell id="HwU-P4itBQ1TjPHvPvn0-28" value="" style="endArrow=none;html=1;rounded=0;exitX=1;exitY=0.5;exitDx=0;exitDy=0;" edge="1" parent="1" source="HwU-P4itBQ1TjPHvPvn0-9">
          <mxGeometry width="50" height="50" relative="1" as="geometry">
            <mxPoint x="508" y="-484" as="sourcePoint" />
            <mxPoint x="650" y="-620" as="targetPoint" />
          </mxGeometry>
        </mxCell>
        <mxCell id="HwU-P4itBQ1TjPHvPvn0-29" value="" style="endArrow=none;html=1;rounded=0;exitX=1;exitY=0.5;exitDx=0;exitDy=0;" edge="1" parent="1" source="HwU-P4itBQ1TjPHvPvn0-8">
          <mxGeometry width="50" height="50" relative="1" as="geometry">
            <mxPoint x="518" y="-474" as="sourcePoint" />
            <mxPoint x="650" y="-430" as="targetPoint" />
          </mxGeometry>
        </mxCell>
        <mxCell id="HwU-P4itBQ1TjPHvPvn0-30" value="" style="endArrow=none;html=1;rounded=0;exitX=1;exitY=0.5;exitDx=0;exitDy=0;" edge="1" parent="1" source="HwU-P4itBQ1TjPHvPvn0-9">
          <mxGeometry width="50" height="50" relative="1" as="geometry">
            <mxPoint x="508" y="-484" as="sourcePoint" />
            <mxPoint x="650" y="-430" as="targetPoint" />
          </mxGeometry>
        </mxCell>
        <mxCell id="HwU-P4itBQ1TjPHvPvn0-31" value="" style="endArrow=none;html=1;rounded=0;exitX=1;exitY=0.5;exitDx=0;exitDy=0;" edge="1" parent="1" source="HwU-P4itBQ1TjPHvPvn0-10">
          <mxGeometry width="50" height="50" relative="1" as="geometry">
            <mxPoint x="508" y="-429" as="sourcePoint" />
            <mxPoint x="650" y="-430" as="targetPoint" />
          </mxGeometry>
        </mxCell>
        <mxCell id="HwU-P4itBQ1TjPHvPvn0-32" value="" style="endArrow=none;html=1;rounded=0;exitX=1;exitY=0.5;exitDx=0;exitDy=0;" edge="1" parent="1" source="HwU-P4itBQ1TjPHvPvn0-11">
          <mxGeometry width="50" height="50" relative="1" as="geometry">
            <mxPoint x="508" y="-373" as="sourcePoint" />
            <mxPoint x="650" y="-430" as="targetPoint" />
          </mxGeometry>
        </mxCell>
        <mxCell id="HwU-P4itBQ1TjPHvPvn0-33" value="" style="endArrow=none;html=1;rounded=0;exitX=1;exitY=0.5;exitDx=0;exitDy=0;" edge="1" parent="1" source="HwU-P4itBQ1TjPHvPvn0-12">
          <mxGeometry width="50" height="50" relative="1" as="geometry">
            <mxPoint x="508" y="-318" as="sourcePoint" />
            <mxPoint x="650" y="-430" as="targetPoint" />
          </mxGeometry>
        </mxCell>
        <mxCell id="HwU-P4itBQ1TjPHvPvn0-34" value="Learning Management System - Use Case Diagram" style="text;html=1;align=center;verticalAlign=middle;whiteSpace=wrap;rounded=0;fontSize=14;" vertex="1" parent="1">
          <mxGeometry x="313" y="-970" width="225" height="70" as="geometry" />
        </mxCell>
      </root>
    </mxGraphModel>
  </diagram>
</mxfile>
